<svg width="464" height="128" viewBox="0 0 464 128" fill="none" xmlns="http://www.w3.org/2000/svg">
<path fill-rule="evenodd" clip-rule="evenodd" d="M300.937 2.52051C300.777 3.44304 300.688 4.38852 300.688 5.35565C300.688 14.5938 308.308 22.0824 317.708 22.0824C327.108 22.0824 334.727 14.5938 334.727 5.35565C334.727 4.38852 334.639 3.44304 334.478 2.52051H300.937Z" fill="white"/>
<path fill-rule="evenodd" clip-rule="evenodd" d="M462.692 124.764C462.909 123.699 463.023 122.599 463.023 121.472C463.023 112.235 455.405 104.746 446.005 104.746C436.605 104.746 428.985 112.235 428.985 121.472C428.985 122.599 429.101 123.699 429.317 124.764H462.692Z" fill="white"/>
<path fill-rule="evenodd" clip-rule="evenodd" d="M307.927 128H328.304V33.3887H307.927V128Z" fill="#151D51"/>
<path fill-rule="evenodd" clip-rule="evenodd" d="M70.9893 89.8988L70.8752 90.1588C66.397 100.313 56.6523 107.286 46.0467 107.286C30.9617 107.286 18.6888 93.9598 18.6888 78.0855C18.6888 62.21 30.9617 49.0995 46.0467 49.0995C56.0442 49.0995 65.2469 55.0476 70.0635 64.3086L70.1867 64.5431H89.781L89.6099 63.9863C83.5668 44.4015 66.0612 31.2451 46.0467 31.2451C20.8592 31.2451 0.367676 52.257 0.367676 78.0855C0.367676 103.913 20.8592 124.925 46.0467 124.925C66.5642 124.925 84.6818 110.744 90.1039 90.4404L90.2478 89.8988H70.9893Z" fill="#151D51"/>
<path fill-rule="evenodd" clip-rule="evenodd" d="M46.048 31.6016C21.0627 31.6016 0.735839 52.4543 0.735839 78.0853C0.735839 103.716 21.0627 124.569 46.048 124.569C66.3982 124.569 84.368 110.498 89.7473 90.3522L89.7745 90.2554H71.233L71.2135 90.2987C66.5681 100.834 56.6912 107.641 46.048 107.641C30.7594 107.641 18.3219 94.3826 18.3219 78.0853C18.3219 61.9077 30.7594 48.745 46.048 48.745C56.122 48.745 65.4505 54.6472 70.3928 64.1478L70.4136 64.1873H89.2883L89.2572 64.0879C83.2634 44.6573 65.8978 31.6016 46.048 31.6016ZM46.0473 125.277C20.6562 125.277 0 104.106 0 78.0826C0 52.0592 20.6562 30.8867 46.0473 30.8867C66.2251 30.8867 83.872 44.1463 89.9618 63.8814L90.2755 64.897H69.9603L69.736 64.465C64.9195 55.2053 55.8425 49.4534 46.0473 49.4534C31.1645 49.4534 19.0563 62.2963 19.0563 78.0826C19.0563 93.9875 31.1645 106.927 46.0473 106.927C56.3948 106.927 66.0085 100.29 70.536 90.017L70.746 89.5405H90.7228L90.4597 90.528C84.9948 110.988 66.732 125.277 46.0473 125.277Z" fill="#151D51"/>
<path fill-rule="evenodd" clip-rule="evenodd" d="M387.292 107.032C372.209 107.032 359.938 93.9577 359.938 78.0847C359.938 62.2092 372.209 49.1407 387.292 49.1407C402.375 49.1407 414.647 62.2092 414.647 78.0847C414.647 93.9577 402.375 107.032 387.292 107.032ZM387.292 31.2461C362.108 31.2461 341.618 52.258 341.618 78.0865C341.618 103.912 362.108 124.926 387.292 124.926C412.477 124.926 432.967 103.912 432.967 78.0865C432.967 52.258 412.477 31.2461 387.292 31.2461Z" fill="#151D51"/>
<path fill-rule="evenodd" clip-rule="evenodd" d="M387.292 49.4961C372.412 49.4961 360.307 62.3211 360.307 78.0845C360.307 93.8505 372.412 106.677 387.292 106.677C402.174 106.677 414.281 93.8505 414.281 78.0845C414.281 62.3211 402.174 49.4961 387.292 49.4961ZM387.291 107.384C372.005 107.384 359.57 94.2394 359.57 78.081C359.57 61.9251 372.005 48.7815 387.291 48.7815C402.579 48.7815 415.015 61.9251 415.015 78.081C415.015 94.2394 402.579 107.384 387.291 107.384ZM387.292 31.6016C362.31 31.6016 341.986 52.4543 341.986 78.0865C341.986 103.716 362.31 124.569 387.292 124.569C412.275 124.569 432.599 103.716 432.599 78.0865C432.599 52.4543 412.275 31.6016 387.292 31.6016ZM387.292 125.277C361.905 125.277 341.251 104.106 341.251 78.0839C341.251 52.0592 361.905 30.8867 387.292 30.8867C412.679 30.8867 433.334 52.0592 433.334 78.0839C433.334 104.106 412.679 125.277 387.292 125.277Z" fill="#151D51"/>
<path fill-rule="evenodd" clip-rule="evenodd" d="M238.604 33.1908H258.011L257.288 45.4603C263.514 34.6638 274.124 31.751 285.294 31.751C289.688 31.751 293.35 32.6506 297.196 33.9108V51.9054C294.083 50.1049 287.125 48.8472 282.913 48.8472C269.546 48.8472 258.011 60.9039 258.011 90.7755V123.886H238.604V33.1908Z" fill="#151D51"/>
<path fill-rule="evenodd" clip-rule="evenodd" d="M122.542 123.24C109.461 123.24 100.69 116.308 100.69 99.5728V0H120.08V96.0229C120.08 101.094 121.156 104.475 127.775 104.475C129.467 104.475 129.93 104.307 131.006 104.307V122.057C127.159 122.901 126.389 123.24 122.542 123.24Z" fill="#151D51"/>
<path fill-rule="evenodd" clip-rule="evenodd" d="M179.689 82.1509C179.835 82.1509 194.427 82.1025 195.382 82.0184C198.877 81.8171 201.535 81.4871 202.877 81.0959C201.971 92.5843 194.245 109.166 176.241 109.166C166.585 109.166 161.479 104.705 161.479 96.2617C161.479 87.4262 168.286 82.1509 179.689 82.1509ZM226.954 108.705C224.683 108.674 222.647 107.401 221.616 105.347C221.334 104.868 221.155 104.265 221.068 103.5C221.06 103.431 221.052 103.362 221.046 103.291C221.024 103.028 221.01 102.753 221.01 102.456V66.1151C221.01 43.7271 207.146 30.8867 182.972 30.8867C161.289 30.8867 146.868 41.2665 144.394 58.652L144.268 59.5236L164.425 59.911L164.574 59.2993C166.679 50.6754 175.713 46.8158 183.733 46.8158C195.66 46.8158 202.228 52.2503 202.231 62.0861C202.231 62.0886 202.189 62.5486 202.132 62.964C201.674 66.3776 198.45 67.8328 191.354 67.8328H180.216C155.609 67.8328 140.919 78.995 140.919 97.6942C140.919 114.473 153.344 125.746 171.836 125.746C183.802 125.746 194.356 121.173 203.213 112.154C204.36 115.578 208.527 123.98 221.734 123.98H227.985V108.684L226.954 108.705Z" fill="#151D51"/>
</svg>
