<svg width="30" height="30" viewBox="0 0 30 30" fill="none" xmlns="http://www.w3.org/2000/svg">
<g clip-path="url(#clip0_52_476)">
<circle cx="15" cy="15" r="14.5" transform="rotate(90 15 15)" stroke="#171716"/>
<path d="M20.1538 15.3536C20.349 15.1583 20.349 14.8417 20.1538 14.6464L16.9718 11.4645C16.7765 11.2692 16.4599 11.2692 16.2647 11.4645C16.0694 11.6597 16.0694 11.9763 16.2647 12.1716L19.0931 15L16.2647 17.8284C16.0694 18.0237 16.0694 18.3403 16.2647 18.5355C16.4599 18.7308 16.7765 18.7308 16.9718 18.5355L20.1538 15.3536ZM10.2002 15V15.5H19.8002V15V14.5H10.2002V15Z" fill="#171716"/>
</g>
<defs>
<clipPath id="clip0_52_476">
<rect width="30" height="30" fill="white" transform="translate(30) rotate(90)"/>
</clipPath>
</defs>
</svg>
