<svg width="30" height="30" viewBox="0 0 30 30" fill="none" xmlns="http://www.w3.org/2000/svg">
<g clip-path="url(#clip0_52_461)">
<rect width="30" height="30" fill="white"/>
<circle cx="15" cy="15" r="14.5" stroke="black"/>
<path d="M15.3536 9.84625C15.1583 9.65099 14.8417 9.65099 14.6464 9.84625L11.4645 13.0282C11.2692 13.2235 11.2692 13.5401 11.4645 13.7353C11.6597 13.9306 11.9763 13.9306 12.1716 13.7353L15 10.9069L17.8284 13.7353C18.0237 13.9306 18.3403 13.9306 18.5355 13.7353C18.7308 13.5401 18.7308 13.2235 18.5355 13.0282L15.3536 9.84625ZM15 19.7998L15.5 19.7998L15.5 10.1998L15 10.1998L14.5 10.1998L14.5 19.7998L15 19.7998Z" fill="black"/>
</g>
<defs>
<clipPath id="clip0_52_461">
<rect width="30" height="30" fill="white"/>
</clipPath>
</defs>
</svg>
